<svg width="45" height="46" viewBox="0 0 45 46" fill="none" xmlns="http://www.w3.org/2000/svg">
<path id="Vector" d="M19.9846 33.9895H24.4256V20.6665H19.9846V33.9895ZM22.2051 16.2255C22.8343 16.2255 23.3616 16.0127 23.7872 15.5871C24.2128 15.1615 24.4256 14.6341 24.4256 14.005C24.4256 13.3759 24.2128 12.8485 23.7872 12.4229C23.3616 11.9973 22.8343 11.7845 22.2051 11.7845C21.576 11.7845 21.0486 11.9973 20.623 12.4229C20.1974 12.8485 19.9846 13.3759 19.9846 14.005C19.9846 14.6341 20.1974 15.1615 20.623 15.5871C21.0486 16.0127 21.576 16.2255 22.2051 16.2255ZM22.2051 45.092C19.1334 45.092 16.2468 44.5091 13.5452 43.3434C10.8436 42.1776 8.49353 40.5955 6.49508 38.597C4.49663 36.5986 2.91453 34.2486 1.74877 31.547C0.583003 28.8453 0.00012207 25.9587 0.00012207 22.887C0.00012207 19.8153 0.583003 16.9287 1.74877 14.2271C2.91453 11.5254 4.49663 9.17542 6.49508 7.17697C8.49353 5.17852 10.8436 3.59641 13.5452 2.43065C16.2468 1.26489 19.1334 0.682007 22.2051 0.682007C25.2768 0.682007 28.1635 1.26489 30.8651 2.43065C33.5667 3.59641 35.9167 5.17852 37.9152 7.17697C39.9136 9.17542 41.4957 11.5254 42.6615 14.2271C43.8272 16.9287 44.4101 19.8153 44.4101 22.887C44.4101 25.9587 43.8272 28.8453 42.6615 31.547C41.4957 34.2486 39.9136 36.5986 37.9152 38.597C35.9167 40.5955 33.5667 42.1776 30.8651 43.3434C28.1635 44.5091 25.2768 45.092 22.2051 45.092Z" fill="#33BFBF"/>
</svg>
